# xmcd
#
# Track frame offsets: 
#        150
#        16525
#        35271
#        52933
#        72307
#        93697
#        115297
#        132017
#        151077
#        170629
#        183096
#        196282
#        215645
#        219979
#        239778
#        254614
#        273979
#        291601
#        311873
#
# Disc length: 4319 seconds
#
# Revision: 2
# Processed by: cddbd v1.5.2PL0 Copyright (c) Steve Scherf et al.
# Submitted via: ExactAudioCopyFreeDBPlugin 1.0
#
DISCID=1d10dd13
DTITLE=Janet Jackson - Unbreakable (Deluxe Edition)
DYEAR=2015
DGENRE=R&B
TTITLE0=Unbreakable
TTITLE1=Burnitup! (feat. Missy Elliott)
TTITLE2=Dammn Baby
TTITLE3=The Great Forever
TTITLE4=Shoulda Known Better
TTITLE5=After You Fall
TTITLE6=Broken Hearts Heal
TTITLE7=Night
TTITLE8=No Sleeep (feat. J. Cole)
TTITLE9=Euphoria
TTITLE10=2 B Loved
TTITLE11=Take Me Away
TTITLE12=Promise
TTITLE13=Lessons Learned
TTITLE14=Black Eagle
TTITLE15=Well Traveled
TTITLE16=Gon' B Alright
TTITLE17=Promise of You
TTITLE18=Love U 4 Life
EXTD=
EXTT0=
EXTT1=
EXTT2=
EXTT3=
EXTT4=
EXTT5=
EXTT6=
EXTT7=
EXTT8=
EXTT9=
EXTT10=
EXTT11=
EXTT12=
EXTT13=
EXTT14=
EXTT15=
EXTT16=
EXTT17=
EXTT18=
PLAYORDER=
